<?xml version="1.0" encoding="utf-8"?>
<!-- Generator: Adobe Illustrator 19.0.1, SVG Export Plug-In . SVG Version: 6.00 Build 0)  -->
<svg version="1.1" id="图层_1" xmlns="http://www.w3.org/2000/svg" xmlns:xlink="http://www.w3.org/1999/xlink" x="0px" y="0px"
	 viewBox="0 0 28 28" style="enable-background:new 0 0 28 28;" xml:space="preserve">
<path d="M19.3,5.2c-2.3,0-4.2,1.8-4.2,4.1c0,2.3,1.9,4.1,4.2,4.1c2.3,0,4.2-1.8,4.2-4.1C23.5,7,21.6,5.2,19.3,5.2z M19.3,12.3
	c-1.7,0-3.1-1.4-3.1-3c0-1.7,1.4-3,3.1-3s3.1,1.4,3.1,3C22.4,11,21,12.3,19.3,12.3z"/>
<path d="M11.6,5.2H5.8c-0.7,0-1.3,0.6-1.3,1.3v5.6c0,0.7,0.6,1.3,1.3,1.3h5.7c0.7,0,1.3-0.6,1.3-1.3V6.5C12.9,5.8,12.3,5.2,11.6,5.2
	z M11.9,11.9c0,0.2-0.2,0.4-0.4,0.4H6c-0.2,0-0.4-0.2-0.4-0.4V6.6c0-0.2,0.2-0.4,0.4-0.4h5.5c0.2,0,0.4,0.2,0.4,0.4V11.9z"/>
<path d="M11.6,14.6H5.8c-0.7,0-1.3,0.6-1.3,1.3v5.6c0,0.7,0.6,1.3,1.3,1.3h5.7c0.7,0,1.3-0.6,1.3-1.3v-5.6
	C12.9,15.2,12.3,14.6,11.6,14.6z M11.9,21.3c0,0.2-0.2,0.4-0.4,0.4H6c-0.2,0-0.4-0.2-0.4-0.4V16c0-0.2,0.2-0.4,0.4-0.4h5.5
	c0.2,0,0.4,0.2,0.4,0.4V21.3z"/>
<path d="M22.2,14.6h-5.7c-0.7,0-1.3,0.6-1.3,1.3v5.6c0,0.7,0.6,1.3,1.3,1.3h5.7c0.7,0,1.3-0.6,1.3-1.3v-5.6
	C23.5,15.2,22.9,14.6,22.2,14.6z M22.5,21.3c0,0.2-0.2,0.4-0.4,0.4h-5.5c-0.2,0-0.4-0.2-0.4-0.4V16c0-0.2,0.2-0.4,0.4-0.4H22
	c0.2,0,0.4,0.2,0.4,0.4V21.3z"/>
</svg>
