<?xml version="1.0" encoding="utf-8"?>
<!-- Generator: Adobe Illustrator 19.0.1, SVG Export Plug-In . SVG Version: 6.00 Build 0)  -->
<svg version="1.1" id="图层_1" xmlns="http://www.w3.org/2000/svg" xmlns:xlink="http://www.w3.org/1999/xlink" x="0px" y="0px"
	 viewBox="0 0 28 28" style="enable-background:new 0 0 28 28;" xml:space="preserve">
<style type="text/css">
	.st0{fill-rule:evenodd;clip-rule:evenodd;}
</style>
<path class="st0" d="M14,24.3c-1.3,0-3.2-1.1-4.8-2.9c-1.8-1.9-2.8-4.1-2.8-6V6.7l0.5,0c0,0,1.8,0,3.6-0.9C12.4,5,13.6,4,13.7,4
	L14,3.7L14.3,4c0,0,1.2,1,3.1,1.9C19.2,6.7,21,6.7,21,6.7l0.5,0l0,8.6c0,1.9-1,4.1-2.8,6C17.1,23.1,15.3,24.3,14,24.3L14,24.3z
	 M7.3,15.4c0,3.7,4.7,7.9,6.6,7.9s6.6-4.2,6.6-7.9V7.8l-0.2,0c-0.8-0.1-2.1-0.3-3.3-0.9c-1.3-0.6-2.3-1.3-2.9-1.7L14,5l-0.1,0.1
	c-0.5,0.4-1.5,1.1-2.9,1.7C9.6,7.4,8.4,7.6,7.6,7.7l-0.2,0L7.3,15.4L7.3,15.4L7.3,15.4z"/>
</svg>
