<?xml version="1.0" encoding="utf-8"?>
<!-- Generator: Adobe Illustrator 19.0.1, SVG Export Plug-In . SVG Version: 6.00 Build 0)  -->
<svg version="1.1" id="图层_1" xmlns="http://www.w3.org/2000/svg" xmlns:xlink="http://www.w3.org/1999/xlink" x="0px" y="0px"
	 viewBox="0 0 28 28" style="enable-background:new 0 0 28 28;" xml:space="preserve">
<style type="text/css">
	.st0{fill:none;stroke:#040000;stroke-linecap:round;stroke-miterlimit:10;}
	.st1{fill-rule:evenodd;clip-rule:evenodd;fill:#040000;}
</style>
<g>
	<line class="st0" x1="8.4" y1="10.6" x2="19" y2="10.6"/>
	<g>
		<path class="st1" d="M14,23.3c-0.5,0-1-0.2-1.3-0.6l-3-2.9H7.5c-0.9,0-1.7-0.4-2.3-1.1c-0.6-0.7-0.9-1.5-0.9-2.4V8.3
			c0-1,0.4-1.9,1.1-2.6c0.7-0.6,1.7-1,2.7-1h12.6c0.8,0,1.5,0.3,2,0.7c0.6,0.5,0.9,1.2,0.9,2v9.1c0,0.9-0.3,1.7-0.9,2.4
			c-0.6,0.7-1.4,1.1-2.3,1.1h-2.1l-3,3C14.9,23.2,14.5,23.3,14,23.3L14,23.3z M8.2,5.7c-1.6,0-2.9,1.1-2.9,2.7v8
			c0,1.3,1.1,2.5,2.3,2.5h2.4l3.3,3.1c0.2,0.2,0.4,0.3,0.7,0.3c0.2,0,0.4,0,0.6-0.2l0,0l3.3-3.2h2.4c1.2,0,2.2-1.2,2.2-2.5V7.5
			c0-1-0.8-1.7-1.9-1.7H8.2L8.2,5.7z"/>
		<line class="st0" x1="10" y1="13.8" x2="17.4" y2="13.8"/>
	</g>
</g>
</svg>
