<?xml version="1.0" encoding="utf-8"?>
<!-- Generator: Adobe Illustrator 19.0.1, SVG Export Plug-In . SVG Version: 6.00 Build 0)  -->
<svg version="1.1" id="图层_1" xmlns="http://www.w3.org/2000/svg" xmlns:xlink="http://www.w3.org/1999/xlink" x="0px" y="0px"
	 viewBox="0 0 28 28" style="enable-background:new 0 0 28 28;" xml:space="preserve">
<style type="text/css">
	.st0{fill:none;stroke:#000000;stroke-linecap:round;stroke-miterlimit:10;}
	.st1{fill:none;stroke:#000000;stroke-miterlimit:10;}
	.st2{fill-rule:evenodd;clip-rule:evenodd;fill:none;stroke:#000000;stroke-miterlimit:10;}
</style>
<g>
	<line class="st0" x1="11.3" y1="11.3" x2="16.8" y2="8.1"/>
	<line class="st0" x1="16.8" y1="20" x2="11.3" y2="16.8"/>
	<path class="st1" d="M6.2,17h3.5c0.7,0,1.3-0.6,1.3-1.3v-3.5c0-0.7-0.6-1.3-1.3-1.3H6.2c-0.7,0-1.3,0.6-1.3,1.3v3.5
		C4.9,16.4,5.5,17,6.2,17z"/>
	<path class="st1" d="M18.3,10.6h3.5c0.7,0,1.3-0.6,1.3-1.3V5.9c0-0.7-0.6-1.3-1.3-1.3h-3.5c-0.7,0-1.3,0.6-1.3,1.3v3.5
		C16.9,10.1,17.5,10.6,18.3,10.6z"/>
	<path class="st1" d="M18.3,23.5h3.5c0.7,0,1.3-0.6,1.3-1.3v-3.5c0-0.7-0.6-1.3-1.3-1.3h-3.5c-0.7,0-1.3,0.6-1.3,1.3v3.5
		C16.9,22.9,17.5,23.5,18.3,23.5z"/>
	<path class="st2" d="M16.1,15.5h-1.6c-0.4,0-0.7-0.3-0.7-0.7v-1.6c0-0.4,0.3-0.7,0.7-0.7h1.6c0.4,0,0.7,0.3,0.7,0.7v1.6
		C16.8,15.2,16.5,15.5,16.1,15.5z"/>
</g>
</svg>
