<?xml version="1.0" encoding="utf-8"?>
<!-- Generator: Adobe Illustrator 19.0.1, SVG Export Plug-In . SVG Version: 6.00 Build 0)  -->
<svg version="1.1" id="图层_1" xmlns="http://www.w3.org/2000/svg" xmlns:xlink="http://www.w3.org/1999/xlink" x="0px" y="0px"
	 viewBox="0 0 28 28" style="enable-background:new 0 0 28 28;" xml:space="preserve">
<style type="text/css">
	.st0{fill-rule:evenodd;clip-rule:evenodd;}
</style>
<g>
	<g>
		<polygon class="st0" points="16.6,7 24.5,7 24.5,8 16.6,8 16.6,7 		"/>
		<polygon class="st0" points="16.7,7.1 24.5,7.1 24.5,8 16.7,8 16.7,7.1 		"/>
		<polygon class="st0" points="16.6,11 24.5,11 24.5,12 16.6,12 16.6,11 		"/>
		<polygon class="st0" points="16.7,11 24.5,11 24.5,11.9 16.7,11.9 16.7,11 		"/>
		<polygon class="st0" points="16.6,14.9 24.5,14.9 24.5,15.9 16.6,15.9 16.6,14.9 		"/>
		<polygon class="st0" points="16.7,15 24.5,15 24.5,15.8 16.7,15.8 16.7,15 		"/>
		<path class="st0" d="M13.5,7.5c0,0.5,0.4,0.8,0.8,0.8c0.5,0,0.8-0.4,0.8-0.8c0-0.5-0.4-0.8-0.8-0.8C13.9,6.6,13.5,7,13.5,7.5
			L13.5,7.5z"/>
		<path class="st0" d="M13.5,11.4c0,0.5,0.4,0.8,0.8,0.8c0.5,0,0.8-0.4,0.8-0.8c0-0.5-0.4-0.8-0.8-0.8
			C13.9,10.6,13.5,10.9,13.5,11.4L13.5,11.4z"/>
		<path class="st0" d="M13.5,15.4c0,0.5,0.4,0.8,0.8,0.8c0.5,0,0.8-0.4,0.8-0.8c0-0.5-0.4-0.8-0.8-0.8
			C13.9,14.5,13.5,14.9,13.5,15.4L13.5,15.4z"/>
	</g>
	<path class="st0" d="M18.7,18.7c0.1,0.1,0.1,0.2,0.2,0.3c0.5,0.6,0.6,0.9,0.6,0.9l0,0l0,0l0,0c0,0,0,0.1,0.1,0.1c0,0,0,0.1,0.1,0.1
		c0,0,0,0,0,0c0,0,0,0,0,0.1l0.1,0.2l0,0c0.1,0.5-0.2,1.1-0.4,1.4c-0.4,0.5-1,1-1.5,1.2c-0.9,0.5-2.1,1.1-3.4,0.8
		c-0.1,0-0.3-0.1-0.4-0.1c-0.9-0.3-2.2-1.2-3.6-2.4c-1.5-1.3-2.8-2.9-3.9-4.4c-1-1.5-1.9-3.3-2.5-5.1c-0.6-1.7-0.9-3.2-0.8-4.1
		c0-0.6,0.3-1.2,0.8-1.8C4.7,5.5,5.3,5,6,4.7c0,0,0.1,0,0.1-0.1c0.5-0.3,1-0.5,1.7-0.6C8,4,8.3,4,8.5,4c0.2,0,0.4,0.1,0.6,0.2l0,0
		c0.1,0.1,0.2,0.2,0.2,0.2C9.4,4.5,9.9,5,10.4,6c0.2,0.3,0.4,0.9,0.5,1.4c0.3,0.8,0.4,1.5,0.4,1.5l0,0l0,0.2
		c0.1,0.5-0.1,0.9-0.5,1.2c0,0-0.1,0-0.1,0l0,0l0,0c0,0-0.1,0-0.1,0c-0.1,0-0.1,0-0.1,0.1l0,0c-0.3,0.1-0.3,0.1-0.4,0.1
		c-0.1,0-0.1,0-0.3,0.1l0,0c-0.2,0.1-0.5,0.1-0.7,0.2c-0.2,0-0.4,0.1-0.7,0.1C8,11,7.9,11.5,7.9,11.6c0.2,1,0.7,2.1,1.7,3.6
		c0.9,1.3,1.8,2.2,2.6,2.9c0.1,0.1,0.2,0.1,0.3,0.2c0.3,0.1,0.7-0.1,0.9-0.3c0.2-0.2,0.3-0.3,0.4-0.5c0.1-0.1,0.2-0.2,0.3-0.4l0,0
		c0.2-0.3,0.4-0.4,0.5-0.5c0.1-0.1,0.1-0.1,0.2-0.2c0.2-0.2,0.4-0.3,0.7-0.3c0.1,0,0.3,0,0.5,0c0.2,0,0.4,0.1,0.5,0.2l0.4,0.3l0,0
		c0,0,0.1,0,0.1,0.1c0,0,0.1,0.1,0.2,0.2c0.1,0.1,0.3,0.3,0.6,0.6c0,0,0.1,0.1,0.1,0.1L18.7,18.7z M15.3,17.2c0,0-0.2,0.2-0.5,0.5
		c-0.1,0.1-0.2,0.2-0.3,0.3c-0.1,0.2-0.3,0.3-0.4,0.5c-0.4,0.4-1,0.7-1.7,0.6c-0.3-0.1-0.5-0.2-0.7-0.4C10.8,18,9.9,17.1,9,15.7
		c-1-1.6-1.6-2.8-1.9-3.9c-0.1-0.3,0-0.7,0.2-1c0.2-0.4,0.5-0.6,0.9-0.7C8.5,10,8.7,10,8.9,10c0.2,0,0.4-0.1,0.6-0.1
		c0.2-0.1,0.2-0.1,0.3-0.1c0.1,0,0.1,0,0.4-0.1c0,0,0,0,0,0c0,0,0.1,0,0.1,0c0,0,0,0,0,0l0,0c0.1-0.1,0.2-0.2,0.2-0.3l0,0l0-0.1
		c0-0.1-0.1-0.7-0.4-1.4C10,7.3,9.8,6.8,9.6,6.4C9.2,5.5,8.8,5.1,8.8,5.1l0,0C8.7,5.1,8.6,5,8.5,4.9C8.5,4.9,8.4,4.9,8.3,4.8
		c-0.1,0-0.2,0-0.4,0l0,0C7.4,4.9,7,5.1,6.5,5.4c0,0-0.1,0-0.1,0.1C5.1,6,4.3,7,4.2,7.8C4.2,8.7,4.5,10.1,5,11.6
		c0.6,1.8,1.5,3.5,2.4,5c1,1.4,2.3,2.9,3.7,4.2c1.3,1.1,2.5,2,3.3,2.3c0.1,0,0.2,0.1,0.3,0.1c0.8,0.2,1.6,0,2.8-0.7
		c0.4-0.2,0.9-0.6,1.2-1c0.2-0.2,0.3-0.6,0.2-0.7L19,20.6l0,0l0,0c0,0-0.1-0.1-0.1-0.2c0,0-0.2-0.3-0.6-0.8c-0.4-0.5-0.9-1-1.2-1.4
		c-0.4-0.4-0.7-0.7-0.7-0.7L16,17.1c0,0-0.1,0-0.2-0.1c-0.1,0-0.1,0-0.2,0C15.5,17,15.4,17.1,15.3,17.2L15.3,17.2"/>
</g>
</svg>
