<?xml version="1.0" encoding="utf-8"?>
<!-- Generator: Adobe Illustrator 19.0.1, SVG Export Plug-In . SVG Version: 6.00 Build 0)  -->
<svg version="1.1" id="图层_1" xmlns="http://www.w3.org/2000/svg" xmlns:xlink="http://www.w3.org/1999/xlink" x="0px" y="0px"
	 viewBox="0 0 28 28" style="enable-background:new 0 0 28 28;" xml:space="preserve">
<style type="text/css">
	.st0{fill:none;stroke:#000000;stroke-linecap:round;stroke-miterlimit:10;}
	.st1{fill:#FFFFFF;}
</style>
<g>
	<line class="st0" x1="10" y1="8.7" x2="12.6" y2="8.7"/>
	<line class="st0" x1="10" y1="19.3" x2="18.6" y2="19.3"/>
	<line class="st0" x1="10" y1="14" x2="18.6" y2="14"/>
	<path d="M17.8,10.7l4.7,0v-1l-4.7,0c-1,0-1.8-0.8-1.8-1.8V3.5h-1v4.4C15,9.5,16.2,10.7,17.8,10.7z"/>
	<path d="M21.4,10v11.1c0,1-0.8,1.8-1.8,1.8H8.9c-1,0-1.8-0.8-1.8-1.8V6.3c0-1,0.8-1.8,1.8-1.8h6.3v-1H8.9c-1.5,0-2.8,1.2-2.8,2.8
		v14.8c0,1.5,1.2,2.8,2.8,2.8h10.7c1.5,0,2.8-1.2,2.8-2.8V10H21.4z"/>
	<g>
		<line class="st1" x1="15.6" y1="3.8" x2="22.1" y2="10.1"/>
		<polygon points="21.7,10.4 15.3,4.2 16,3.5 22.4,9.7 		"/>
	</g>
</g>
</svg>
