<?xml version="1.0" encoding="utf-8"?>
<!-- Generator: Adobe Illustrator 19.0.1, SVG Export Plug-In . SVG Version: 6.00 Build 0)  -->
<svg version="1.1" id="图层_1" xmlns="http://www.w3.org/2000/svg" xmlns:xlink="http://www.w3.org/1999/xlink" x="0px" y="0px"
	 viewBox="-291 383 28 28" style="enable-background:new -291 383 28 28;" xml:space="preserve">
<g>
	<g>
		<path d="M-275.2,394.4h-3.7c-1,0-1.8-0.8-1.8-1.8v-3.7c0-1,0.8-1.8,1.8-1.8h3.7c1,0,1.8,0.8,1.8,1.8v3.7
			C-273.4,393.6-274.2,394.4-275.2,394.4z M-278.9,388.1c-0.4,0-0.8,0.4-0.8,0.8v3.7c0,0.4,0.4,0.8,0.8,0.8h3.7
			c0.4,0,0.8-0.4,0.8-0.8v-3.7c0-0.4-0.4-0.8-0.8-0.8H-278.9z"/>
	</g>
	<g>
		<path d="M-268.6,406.9h-3.7c-1,0-1.8-0.8-1.8-1.8v-3.7c0-1,0.8-1.8,1.8-1.8h3.7c1,0,1.8,0.8,1.8,1.8v3.7
			C-266.8,406.1-267.6,406.9-268.6,406.9z M-272.3,400.6c-0.4,0-0.8,0.4-0.8,0.8v3.7c0,0.4,0.4,0.8,0.8,0.8h3.7
			c0.4,0,0.8-0.4,0.8-0.8v-3.7c0-0.4-0.4-0.8-0.8-0.8H-272.3z"/>
	</g>
	<g>
		<path d="M-281.8,406.9h-3.7c-1,0-1.8-0.8-1.8-1.8v-3.7c0-1,0.8-1.8,1.8-1.8h3.7c1,0,1.8,0.8,1.8,1.8v3.7
			C-280,406.1-280.8,406.9-281.8,406.9z M-285.5,400.6c-0.4,0-0.8,0.4-0.8,0.8v3.7c0,0.4,0.4,0.8,0.8,0.8h3.7c0.4,0,0.8-0.4,0.8-0.8
			v-3.7c0-0.4-0.4-0.8-0.8-0.8H-285.5z"/>
	</g>
	<g>
		<rect x="-277.5" y="394.3" width="1" height="2.4"/>
	</g>
	<g>
		<rect x="-286.8" y="396.5" width="19.5" height="1"/>
	</g>
	<g>
		<rect x="-284.1" y="397.5" width="1" height="2.3"/>
	</g>
	<g>
		<rect x="-270.9" y="397" width="1" height="3.1"/>
	</g>
</g>
</svg>
