<?xml version="1.0" encoding="utf-8"?>
<!-- Generator: Adobe Illustrator 19.0.1, SVG Export Plug-In . SVG Version: 6.00 Build 0)  -->
<svg version="1.1" id="图层_1" xmlns="http://www.w3.org/2000/svg" xmlns:xlink="http://www.w3.org/1999/xlink" x="0px" y="0px"
	 viewBox="0 0 28 28" style="enable-background:new 0 0 28 28;" xml:space="preserve">
<style type="text/css">
	.st0{fill:#040000;}
</style>
<g>
	<g>
		<path class="st0" d="M24.3,11.9c-0.1-0.6-0.5-1-0.9-1h-0.1c-1.5,0-2.8-1.2-2.8-2.8c0-0.5,0.2-1,0.2-1.1C21,6.6,20.9,6,20.4,5.6
			l0,0l-2.6-1.5l0,0C17.5,4.1,17.4,4,17.2,4c-0.4,0-0.7,0.2-1,0.4c-0.3,0.3-1.3,1.2-2.2,1.2c-0.8,0-1.9-0.9-2.2-1.2
			c-0.2-0.3-0.6-0.4-1-0.4c-0.2,0-0.3,0-0.5,0.1l0,0L7.6,5.6l0,0C7.1,6,6.9,6.6,7.1,7.1c0,0,0.2,0.6,0.2,1.1c0,1.5-1.2,2.8-2.8,2.8
			H4.5c-0.4,0-0.8,0.4-0.9,1c0,0-0.2,1.2-0.2,2.1c0,0.9,0.2,2,0.2,2.1c0.1,0.6,0.5,1,0.9,1c0,0,0,0,0,0h0.1c1.5,0,2.8,1.2,2.8,2.8
			c0,0.5-0.2,1-0.2,1.1c-0.2,0.5-0.1,1.2,0.4,1.5l0,0l2.6,1.5l0,0c0.2,0.1,0.3,0.1,0.5,0.1c0.4,0,0.8-0.2,1-0.4
			c0.3-0.3,1.4-1.3,2.2-1.3c0.9,0,1.9,0.9,2.2,1.3c0.2,0.3,0.6,0.4,1,0.4c0,0,0,0,0,0c0.2,0,0.3,0,0.5-0.1l0,0l2.7-1.5l0,0
			c0.5-0.3,0.7-1,0.4-1.5c0,0-0.2-0.6-0.2-1.1c0-1.5,1.2-2.8,2.8-2.8h0.1c0.4,0,0.8-0.4,0.9-1c0,0,0.2-1.2,0.2-2.1
			C24.6,13.1,24.3,12,24.3,11.9z M23.3,15.9c-2.1,0.1-3.8,1.9-3.8,4.1c0,0.7,0.3,1.4,0.3,1.6l-2.6,1.4c0,0,0,0,0,0c0,0-0.1,0-0.1,0
			c0-0.1-0.4-0.4-0.9-0.8c-0.8-0.6-1.6-0.9-2.2-0.9c-0.7,0-1.4,0.3-2.2,0.9c-0.5,0.4-0.9,0.8-0.9,0.8c0,0,0,0-0.1,0c0,0,0,0,0,0
			l-2.5-1.4c0.1-0.1,0.3-0.8,0.3-1.6c0-2.2-1.7-3.9-3.8-4.1c0-0.2-0.2-1.1-0.2-1.8c0-0.7,0.2-1.7,0.2-1.8c2.1-0.1,3.8-1.9,3.8-4.1
			c0-0.7-0.3-1.4-0.3-1.6l2.6-1.4c0,0,0,0,0,0c0,0,0.1,0,0.1,0c0,0,0.4,0.4,0.9,0.8c0.8,0.6,1.5,0.8,2.2,0.8c0.7,0,1.4-0.3,2.2-0.8
			c0.5-0.4,0.9-0.7,0.9-0.8c0,0,0.1,0,0.1,0c0,0,0,0,0,0l2.5,1.4c-0.1,0.1-0.3,0.8-0.3,1.6c0,2.2,1.7,3.9,3.8,4.1
			c0,0.2,0.2,1.1,0.2,1.8C23.5,14.7,23.3,15.7,23.3,15.9z"/>
	</g>
	<path class="st0" d="M13.9,10.3c-2,0-3.7,1.6-3.7,3.7s1.6,3.7,3.7,3.7s3.7-1.6,3.7-3.7S15.9,10.3,13.9,10.3z M13.9,16.6
		c-1.5,0-2.6-1.2-2.6-2.6s1.2-2.6,2.6-2.6c1.5,0,2.6,1.2,2.6,2.6C16.6,15.5,15.4,16.6,13.9,16.6z"/>
</g>
</svg>
