<?xml version="1.0" encoding="utf-8"?>
<!-- Generator: Adobe Illustrator 19.0.1, SVG Export Plug-In . SVG Version: 6.00 Build 0)  -->
<svg version="1.1" id="图层_1" xmlns="http://www.w3.org/2000/svg" xmlns:xlink="http://www.w3.org/1999/xlink" x="0px" y="0px"
	 viewBox="0 0 28 28" style="enable-background:new 0 0 28 28;" xml:space="preserve">
<style type="text/css">
	.st0{fill-rule:evenodd;clip-rule:evenodd;}
</style>
<g>
	<path class="st0" d="M19.3,18.7c-0.2,0-0.4-0.1-0.5-0.2c-1.2-1.5-3-2.3-4.9-2.3c-1.8,0-3.6,0.8-4.8,2.2c-0.2,0.3-0.6,0.3-0.9,0.1
		C8,18.2,8,17.8,8.2,17.6c1.4-1.7,3.5-2.6,5.7-2.6c2.3,0,4.4,1,5.8,2.8c0.2,0.3,0.2,0.7-0.1,0.9C19.6,18.7,19.4,18.7,19.3,18.7
		L19.3,18.7z M23,14.4c-0.2,0-0.3-0.1-0.5-0.2c-2.2-2.4-5.3-3.8-8.6-3.8c-3.2,0-6.3,1.4-8.5,3.7c-0.2,0.3-0.6,0.3-0.9,0
		c-0.3-0.2-0.3-0.6,0-0.9c2.4-2.6,5.8-4.1,9.4-4.1c3.6,0,7.1,1.5,9.5,4.3c0.2,0.3,0.2,0.6,0,0.9C23.3,14.4,23.1,14.4,23,14.4
		L23,14.4z M26.4,10.3c-0.2,0-0.3-0.1-0.5-0.2c-3.1-3.3-7.5-5.3-12-5.3C9.4,4.9,5.2,6.7,2,10c-0.2,0.2-0.6,0.3-0.9,0
		c-0.2-0.2-0.3-0.6,0-0.9C4.5,5.6,9,3.7,13.9,3.7c4.9,0,9.6,2.1,12.9,5.7c0.2,0.2,0.2,0.6,0,0.9C26.7,10.3,26.6,10.3,26.4,10.3
		L26.4,10.3z M14,24.3c-1.2,0-2.3-1-2.3-2.3c0-1.2,1-2.3,2.3-2.3c1.2,0,2.3,1,2.3,2.3C16.3,23.3,15.2,24.3,14,24.3L14,24.3z
		 M14,21.1c-0.6,0-1,0.5-1,1c0,0.6,0.5,1,1,1c0.6,0,1-0.5,1-1C15,21.5,14.6,21.1,14,21.1L14,21.1z"/>
</g>
</svg>
