<?xml version="1.0" encoding="utf-8"?>
<!-- Generator: Adobe Illustrator 19.0.1, SVG Export Plug-In . SVG Version: 6.00 Build 0)  -->
<svg version="1.1" id="图层_1" xmlns="http://www.w3.org/2000/svg" xmlns:xlink="http://www.w3.org/1999/xlink" x="0px" y="0px"
	 viewBox="0 0 28 28" style="enable-background:new 0 0 28 28;" xml:space="preserve">
<style type="text/css">
	.st0{fill-rule:evenodd;clip-rule:evenodd;}
</style>
<path class="st0" d="M21.1,18.7c0.1,0.1,0.1,0.2,0.2,0.3c0.5,0.6,0.6,0.9,0.6,0.9l0,0l0,0l0,0c0,0,0,0.1,0.1,0.1c0,0,0,0.1,0.1,0.1
	c0,0,0,0,0,0c0,0,0,0,0,0.1l0.1,0.2l0,0c0.1,0.5-0.2,1.1-0.4,1.4c-0.4,0.5-1,1-1.5,1.2c-0.9,0.5-2.1,1.1-3.4,0.8
	c-0.1,0-0.3-0.1-0.4-0.1c-0.9-0.3-2.2-1.2-3.6-2.4c-1.5-1.3-2.8-2.9-3.9-4.4c-1-1.5-1.9-3.3-2.5-5.1C6,10.2,5.7,8.7,5.8,7.8
	c0-0.6,0.3-1.2,0.8-1.8C7,5.5,7.6,5,8.3,4.7c0,0,0.1,0,0.1-0.1C9,4.3,9.4,4.1,10.1,4c0.2,0,0.5,0,0.7,0c0.2,0,0.4,0.1,0.6,0.2l0,0
	c0.1,0.1,0.2,0.2,0.2,0.2C11.7,4.5,12.2,5,12.7,6c0.2,0.3,0.4,0.9,0.5,1.4c0.3,0.8,0.4,1.5,0.4,1.5l0,0l0,0.2
	c0.1,0.5-0.1,0.9-0.5,1.2c0,0-0.1,0-0.1,0l0,0l0,0c0,0-0.1,0-0.1,0c-0.1,0-0.1,0-0.1,0.1l0,0c-0.3,0.1-0.3,0.1-0.4,0.1
	c-0.1,0-0.1,0-0.3,0.1l0,0c-0.2,0.1-0.5,0.1-0.7,0.2c-0.2,0-0.4,0.1-0.7,0.1c-0.4,0.1-0.5,0.6-0.5,0.7c0.2,1,0.7,2.1,1.7,3.6
	c0.9,1.3,1.8,2.2,2.6,2.9c0.1,0.1,0.2,0.1,0.3,0.2c0.3,0.1,0.7-0.1,0.9-0.3c0.2-0.2,0.3-0.3,0.4-0.5c0.1-0.1,0.2-0.2,0.3-0.4l0,0
	c0.2-0.3,0.4-0.4,0.5-0.5c0.1-0.1,0.1-0.1,0.2-0.2c0.2-0.2,0.4-0.3,0.7-0.3c0.1,0,0.3,0,0.5,0c0.2,0,0.4,0.1,0.5,0.2l0.4,0.3l0,0
	c0,0,0.1,0,0.1,0.1c0,0,0.1,0.1,0.2,0.2c0.1,0.1,0.3,0.3,0.6,0.6c0,0,0.1,0.1,0.1,0.1L21.1,18.7z M17.7,17.2c0,0-0.2,0.2-0.5,0.5
	c-0.1,0.1-0.2,0.2-0.3,0.3c-0.1,0.2-0.3,0.3-0.4,0.5c-0.4,0.4-1,0.7-1.7,0.6c-0.3-0.1-0.5-0.2-0.7-0.4c-0.8-0.8-1.8-1.7-2.7-3.1
	c-1-1.6-1.6-2.8-1.9-3.9c-0.1-0.3,0-0.7,0.2-1c0.2-0.4,0.5-0.6,0.9-0.7C10.8,10,11,10,11.2,10c0.2,0,0.4-0.1,0.6-0.1
	c0.2-0.1,0.2-0.1,0.3-0.1c0.1,0,0.1,0,0.4-0.1c0,0,0,0,0,0c0,0,0.1,0,0.1,0c0,0,0,0,0,0l0,0c0.1-0.1,0.2-0.2,0.2-0.3l0,0l0-0.1
	c0-0.1-0.1-0.7-0.4-1.4c-0.1-0.4-0.3-0.9-0.5-1.3c-0.4-0.9-0.8-1.2-0.9-1.3l0,0c-0.1,0-0.1-0.1-0.2-0.2c-0.1-0.1-0.2-0.1-0.2-0.1
	c-0.1,0-0.2,0-0.4,0l0,0C9.7,4.9,9.3,5.1,8.8,5.4c0,0-0.1,0-0.1,0.1C7.5,6,6.7,7,6.6,7.8c-0.1,0.8,0.2,2.2,0.8,3.8
	c0.6,1.8,1.5,3.5,2.4,5c1,1.4,2.3,2.9,3.7,4.2c1.3,1.1,2.5,2,3.3,2.3c0.1,0,0.2,0.1,0.3,0.1c0.8,0.2,1.6,0,2.8-0.7
	c0.4-0.2,0.9-0.6,1.2-1c0.2-0.2,0.3-0.6,0.2-0.7l-0.1-0.1l0,0l0,0c0,0-0.1-0.1-0.1-0.2c0,0-0.2-0.3-0.6-0.8c-0.4-0.5-0.9-1-1.2-1.4
	c-0.4-0.4-0.7-0.7-0.7-0.7l-0.3-0.3c0,0-0.1,0-0.2-0.1c-0.1,0-0.1,0-0.2,0C17.9,17,17.8,17.1,17.7,17.2L17.7,17.2"/>
</svg>
