<?xml version="1.0" encoding="utf-8"?>
<!-- Generator: Adobe Illustrator 19.0.1, SVG Export Plug-In . SVG Version: 6.00 Build 0)  -->
<svg version="1.1" id="图层_1" xmlns="http://www.w3.org/2000/svg" xmlns:xlink="http://www.w3.org/1999/xlink" x="0px" y="0px"
	 viewBox="0 0 28 28" style="enable-background:new 0 0 28 28;" xml:space="preserve">
<style type="text/css">
	.st0{fill:none;stroke:#000000;stroke-miterlimit:10;}
</style>
<g>
	<path class="st0" d="M10.8,5.9v3.7c0,0.7,0.6,1.3,1.3,1.3h3.7c0.7,0,1.3-0.6,1.3-1.3V5.9c0-0.7-0.6-1.3-1.3-1.3h-3.7
		C11.4,4.6,10.8,5.2,10.8,5.9z"/>
	<path class="st0" d="M17.4,18.4v3.7c0,0.7,0.6,1.3,1.3,1.3h3.7c0.7,0,1.3-0.6,1.3-1.3v-3.7c0-0.7-0.6-1.3-1.3-1.3h-3.7
		C18,17.1,17.4,17.7,17.4,18.4z"/>
	<path class="st0" d="M4.2,18.4v3.7c0,0.7,0.6,1.3,1.3,1.3h3.7c0.7,0,1.3-0.6,1.3-1.3v-3.7c0-0.7-0.6-1.3-1.3-1.3H5.5
		C4.8,17.1,4.2,17.7,4.2,18.4z"/>
	<line class="st0" x1="14" y1="11.3" x2="14" y2="13.7"/>
	<line class="st0" x1="4.2" y1="14" x2="23.7" y2="14"/>
	<line class="st0" x1="7.4" y1="14.5" x2="7.4" y2="16.8"/>
	<line class="st0" x1="20.6" y1="14" x2="20.6" y2="17.1"/>
</g>
</svg>
