<?xml version="1.0" encoding="utf-8"?>
<!-- Generator: Adobe Illustrator 19.0.1, SVG Export Plug-In . SVG Version: 6.00 Build 0)  -->
<svg version="1.1" id="图层_1" xmlns="http://www.w3.org/2000/svg" xmlns:xlink="http://www.w3.org/1999/xlink" x="0px" y="0px"
	 viewBox="-291 383 28 28" style="enable-background:new -291 383 28 28;" xml:space="preserve">
<g>
	<g>
		<rect x="-286.7" y="394.5" width="18.9" height="1"/>
	</g>
	<g>
		<path d="M-277,407.5C-277,407.5-277,407.5-277,407.5c-0.2,0-0.3-0.1-0.4-0.2l-9.5-12c-0.2-0.2-0.1-0.5,0-0.6l6.2-7
			c0.1-0.1,0.2-0.2,0.4-0.2h6.5c0.1,0,0.3,0.1,0.4,0.2l6.4,7c0.2,0.2,0.2,0.5,0,0.6l-9.6,12C-276.7,407.4-276.8,407.5-277,407.5z
			 M-285.8,395l8.9,11.2l8.9-11.2l-6-6.5h-6.1L-285.8,395z"/>
	</g>
	<g>
		<path d="M-277.7,406.7l-3.4-11.6c0-0.1,0-0.2,0-0.3l2.3-6.7l0.9,0.3l-2.2,6.5l3.4,11.4L-277.7,406.7z"/>
	</g>
	<g>
		<path d="M-276.3,406.7l-1-0.3l3.3-11.5l-2.2-6.6l0.9-0.3l2.2,6.7c0,0.1,0,0.2,0,0.3L-276.3,406.7z"/>
	</g>
</g>
</svg>
