<?xml version="1.0" encoding="utf-8"?>
<!-- Generator: Adobe Illustrator 19.0.1, SVG Export Plug-In . SVG Version: 6.00 Build 0)  -->
<svg version="1.1" id="图层_1" xmlns="http://www.w3.org/2000/svg" xmlns:xlink="http://www.w3.org/1999/xlink" x="0px" y="0px"
	 viewBox="-291 383 28 28" style="enable-background:new -291 383 28 28;" xml:space="preserve">
<g>
	<path d="M-276.8,406.7c-5.3,0-9.7-4.4-9.7-9.7c0-5.4,4.4-9.8,9.8-9.8c4,0,7.7,2.5,9.1,6.2c0.1,0.3,0,0.5-0.3,0.6
		c-0.3,0.1-0.5,0-0.6-0.3c-1.2-3.3-4.5-5.6-8.1-5.6c-4.9,0-8.8,3.9-8.8,8.8c0,4.8,3.9,8.7,8.7,8.7c3.1,0,6-1.7,7.6-4.4
		c0.1-0.2,0.4-0.3,0.7-0.2c0.2,0.1,0.3,0.4,0.2,0.7C-270.1,404.8-273.4,406.7-276.8,406.7z"/>
</g>
<g>
	<path d="M-268,394.2h-5.6c-0.3,0-0.5-0.2-0.5-0.5s0.2-0.5,0.5-0.5h5.1v-4.8c0-0.3,0.2-0.5,0.5-0.5s0.5,0.2,0.5,0.5v5.3
		C-267.5,394-267.7,394.2-268,394.2z"/>
</g>
</svg>
