<?xml version="1.0" encoding="utf-8"?>
<!-- Generator: Adobe Illustrator 19.0.1, SVG Export Plug-In . SVG Version: 6.00 Build 0)  -->
<svg version="1.1" id="图层_1" xmlns="http://www.w3.org/2000/svg" xmlns:xlink="http://www.w3.org/1999/xlink" x="0px" y="0px"
	 viewBox="-291 383 28 28" style="enable-background:new -291 383 28 28;" xml:space="preserve">
<g>
	<g>
		<path d="M-272.2,406.5c-1.7,0-3-1.3-3-3s1.3-3,3-3s3,1.3,3,3S-270.5,406.5-272.2,406.5z M-272.2,401.5c-1.1,0-2,0.9-2,2s0.9,2,2,2
			s2-0.9,2-2S-271.1,401.5-272.2,401.5z"/>
	</g>
</g>
<g>
	<g>
		<g>
			<path d="M-282.8,403.5c-2,0-3.6-1.6-3.6-3.6c0-2,1.6-3.6,3.6-3.6s3.6,1.6,3.6,3.6C-279.2,401.9-280.8,403.5-282.8,403.5z
				 M-282.8,397.3c-1.4,0-2.6,1.2-2.6,2.6s1.2,2.6,2.6,2.6s2.6-1.2,2.6-2.6S-281.4,397.3-282.8,397.3z"/>
		</g>
	</g>
	<g>
		<g>
			<path d="M-271.6,395.6c-2.2,0-4-1.8-4-4s1.8-4,4-4s4,1.8,4,4S-269.4,395.6-271.6,395.6z M-271.6,388.6c-1.7,0-3,1.3-3,3
				s1.3,3,3,3s3-1.3,3-3S-269.9,388.6-271.6,388.6z"/>
		</g>
	</g>
	<g>
		<g>
			<rect x="-278.3" y="392.1" transform="matrix(0.5186 0.855 -0.855 0.5186 204.5778 427.9566)" width="1" height="7.1"/>
		</g>
	</g>
</g>
<g>
	<g>
		<rect x="-280.2" y="401.8" transform="matrix(0.9487 0.3162 -0.3162 0.9487 112.9753 108.3558)" width="5.7" height="1"/>
	</g>
</g>
</svg>
