<?xml version="1.0" encoding="utf-8"?>
<!-- Generator: Adobe Illustrator 19.0.1, SVG Export Plug-In . SVG Version: 6.00 Build 0)  -->
<svg version="1.1" id="图层_1" xmlns="http://www.w3.org/2000/svg" xmlns:xlink="http://www.w3.org/1999/xlink" x="0px" y="0px"
	 viewBox="-291 383 28 28" style="enable-background:new -291 383 28 28;" xml:space="preserve">
<style type="text/css">
	.st0{fill:#040000;}
</style>
<g>
	<g>
		<path class="st0" d="M-266,391.2c-1.3,0-2.3-1-2.3-2.3c0-1.3,1-2.3,2.3-2.3s2.3,1,2.3,2.3C-263.7,390.2-264.7,391.2-266,391.2z
			 M-266,387.6c-0.7,0-1.3,0.6-1.3,1.3s0.6,1.3,1.3,1.3s1.3-0.6,1.3-1.3S-265.3,387.6-266,387.6z"/>
	</g>
	<g>
		<path class="st0" d="M-274.2,402.6c-1.3,0-2.3-1-2.3-2.3s1-2.3,2.3-2.3s2.3,1,2.3,2.3S-272.9,402.6-274.2,402.6z M-274.2,399
			c-0.7,0-1.3,0.6-1.3,1.3s0.6,1.3,1.3,1.3s1.3-0.6,1.3-1.3S-273.5,399-274.2,399z"/>
	</g>
	<g>
		<path class="st0" d="M-281.7,398c-1.3,0-2.3-1-2.3-2.3c0-1.3,1-2.3,2.3-2.3c1.3,0,2.3,1,2.3,2.3C-279.4,397-280.4,398-281.7,398z
			 M-281.7,394.4c-0.7,0-1.3,0.6-1.3,1.3s0.6,1.3,1.3,1.3s1.3-0.6,1.3-1.3S-281,394.4-281.7,394.4z"/>
	</g>
	<g>
		<path class="st0" d="M-288.1,407.4c-1.3,0-2.3-1-2.3-2.3s1-2.3,2.3-2.3c1.3,0,2.3,1,2.3,2.3S-286.8,407.4-288.1,407.4z
			 M-288.1,403.8c-0.7,0-1.3,0.6-1.3,1.3s0.6,1.3,1.3,1.3s1.3-0.6,1.3-1.3S-287.4,403.8-288.1,403.8z"/>
	</g>
	<g>
		
			<rect x="-270.8" y="389.3" transform="matrix(0.7962 0.605 -0.605 0.7962 183.6299 243.8916)" class="st0" width="1" height="10.4"/>
	</g>
	<g>
		
			<rect x="-280.7" y="397.8" transform="matrix(0.838 0.5457 -0.5457 0.838 172.2933 216.3352)" class="st0" width="5.1" height="1"/>
	</g>
	<g>
		
			<rect x="-285.4" y="396.6" transform="matrix(0.8092 0.5876 -0.5876 0.8092 180.9102 243.7886)" class="st0" width="1" height="7.7"/>
	</g>
</g>
</svg>
