<?xml version="1.0" encoding="utf-8"?>
<!-- Generator: Adobe Illustrator 19.0.1, SVG Export Plug-In . SVG Version: 6.00 Build 0)  -->
<svg version="1.1" id="图层_1" xmlns="http://www.w3.org/2000/svg" xmlns:xlink="http://www.w3.org/1999/xlink" x="0px" y="0px"
	 viewBox="0 0 28 28" style="enable-background:new 0 0 28 28;" xml:space="preserve">
<style type="text/css">
	.st0{fill:#040000;}
</style>
<g>
	<path class="st0" d="M7.3,17.9H4.6c-0.3,0-0.6,0.3-0.6,0.6v4.6c0,0.3,0.3,0.6,0.6,0.6h2.7c0.3,0,0.6-0.3,0.6-0.6v-4.6
		C7.9,18.2,7.6,17.9,7.3,17.9z M6.8,22.7H5.1V19h1.7V22.7z"/>
	<path class="st0" d="M12.7,23.7c0.3,0,0.6-0.3,0.6-0.6V10.2c0-0.3-0.3-0.6-0.6-0.6H10c-0.3,0-0.6,0.3-0.6,0.6v12.9
		c0,0.3,0.3,0.6,0.6,0.6H12.7z M10.4,10.7l1.7,0v12h-1.7L10.4,10.7z"/>
	<path class="st0" d="M23.4,23.7c0.3,0,0.6-0.3,0.6-0.6V4.9c0-0.3-0.3-0.6-0.6-0.6h-2.7c-0.3,0-0.6,0.3-0.6,0.6v18.2
		c0,0.3,0.3,0.6,0.6,0.6H23.4z M21.2,5.3l1.7,0v17.3h-1.7L21.2,5.3z"/>
	<path class="st0" d="M18,23.7c0.3,0,0.6-0.3,0.6-0.6v-8.6c0-0.3-0.3-0.6-0.6-0.6h-2.7c-0.3,0-0.6,0.3-0.6,0.6v8.6
		c0,0.3,0.3,0.6,0.6,0.6H18z M15.8,15l1.7,0v7.7h-1.7L15.8,15z"/>
	<rect x="12.2" y="22.7" class="st0" width="1.1" height="1.1"/>
</g>
</svg>
