<?xml version="1.0" encoding="utf-8"?>
<!-- Generator: Adobe Illustrator 19.0.1, SVG Export Plug-In . SVG Version: 6.00 Build 0)  -->
<svg version="1.1" id="图层_1" xmlns="http://www.w3.org/2000/svg" xmlns:xlink="http://www.w3.org/1999/xlink" x="0px" y="0px"
	 viewBox="0 0 28 28" style="enable-background:new 0 0 28 28;" xml:space="preserve">
<style type="text/css">
	.st0{fill-rule:evenodd;clip-rule:evenodd;}
</style>
<g>
	<path class="st0" d="M14,24.2c-1.4,0-2.7-0.3-4-0.8c-1.2-0.5-2.3-1.2-3.2-2.2c-0.9-0.9-1.7-2-2.2-3.2c-0.5-1.3-0.8-2.6-0.8-4
		c0-1.4,0.3-2.7,0.8-4c0.5-1.2,1.2-2.3,2.2-3.2c0.9-0.9,2-1.7,3.2-2.2c1.3-0.5,2.6-0.8,4-0.8c1.4,0,2.7,0.3,4,0.8
		c1.2,0.5,2.3,1.2,3.2,2.2c0.9,0.9,1.7,2,2.2,3.2c0.5,1.3,0.8,2.6,0.8,4c0,1.4-0.3,2.7-0.8,4c-0.5,1.2-1.2,2.3-2.2,3.2
		c-0.9,0.9-2,1.7-3.2,2.2C16.7,23.9,15.4,24.2,14,24.2L14,24.2L14,24.2 M14,5c-5,0-9,4-9,9c0,5,4,9,9,9c5,0,9-4,9-9C23,9,19,5,14,5
		L14,5 M18.1,13.2c-0.2,0.2-0.6,0.2-0.9,0l-2.6-2.6v8.3c0,0.3-0.3,0.6-0.6,0.6c-0.3,0-0.6-0.3-0.6-0.6v-8.3l-2.6,2.6
		c-0.2,0.2-0.6,0.2-0.9,0c-0.1-0.1-0.2-0.3-0.2-0.4c0-0.2,0.1-0.3,0.2-0.4l3.7-3.7c0.2-0.2,0.6-0.2,0.9,0l3.7,3.7
		C18.3,12.6,18.3,13,18.1,13.2L18.1,13.2L18.1,13.2 M18.1,13.2L18.1,13.2z"/>
</g>
</svg>
