<?xml version="1.0" encoding="utf-8"?>
<!-- Generator: Adobe Illustrator 19.0.1, SVG Export Plug-In . SVG Version: 6.00 Build 0)  -->
<svg version="1.1" id="图层_1" xmlns="http://www.w3.org/2000/svg" xmlns:xlink="http://www.w3.org/1999/xlink" x="0px" y="0px"
	 viewBox="-291 383 28 28" style="enable-background:new -291 383 28 28;" xml:space="preserve">
<g>
	<g>
		<path d="M-279.7,394.8c-0.2,0-0.3-0.1-0.4-0.2c-0.1-0.2-0.1-0.5,0.2-0.7l5.5-3.2c0.2-0.1,0.5-0.1,0.7,0.2c0.1,0.2,0.1,0.5-0.2,0.7
			l-5.5,3.2C-279.5,394.8-279.6,394.8-279.7,394.8z"/>
	</g>
	<g>
		<path d="M-274.2,403.5c-0.1,0-0.2,0-0.3-0.1l-5.5-3.2c-0.2-0.1-0.3-0.4-0.2-0.7c0.1-0.2,0.4-0.3,0.7-0.2l5.5,3.2
			c0.2,0.1,0.3,0.4,0.2,0.7C-273.9,403.4-274,403.5-274.2,403.5z"/>
	</g>
	<g>
		<path d="M-281.3,400.5h-3.5c-1,0-1.8-0.8-1.8-1.8v-3.5c0-1,0.8-1.8,1.8-1.8h3.5c1,0,1.8,0.8,1.8,1.8v3.5
			C-279.5,399.7-280.3,400.5-281.3,400.5z M-284.8,394.4c-0.4,0-0.8,0.4-0.8,0.8v3.5c0,0.4,0.4,0.8,0.8,0.8h3.5
			c0.4,0,0.8-0.4,0.8-0.8v-3.5c0-0.4-0.4-0.8-0.8-0.8H-284.8z"/>
	</g>
	<g>
		<path d="M-269.2,394.1h-3.5c-0.6,0-1.1-0.2-1.5-0.6c-0.3-0.3-0.4-0.7-0.3-1.2l0-3.4c0-1,0.8-1.8,1.8-1.8h3.5c1,0,1.8,0.8,1.8,1.8
			v3.4C-267.4,393.3-268.2,394.1-269.2,394.1z M-272.7,388.1c-0.4,0-0.8,0.4-0.8,0.8v3.5c0,0.2,0,0.3,0.1,0.4
			c0.1,0.2,0.4,0.3,0.7,0.3h3.5c0.4,0,0.8-0.4,0.8-0.8v-3.4c0-0.4-0.4-0.8-0.8-0.8H-272.7z"/>
	</g>
	<g>
		<path d="M-269.2,407h-3.5c-0.6,0-1.1-0.2-1.4-0.6c-0.3-0.4-0.4-0.8-0.4-1.2l0-3.4c0-1,0.8-1.8,1.8-1.8h3.5c1,0,1.8,0.8,1.8,1.8
			v3.5C-267.4,406.2-268.2,407-269.2,407z M-272.7,400.9c-0.4,0-0.8,0.4-0.8,0.8v3.5c0,0.3,0.1,0.4,0.1,0.5c0.2,0.2,0.4,0.3,0.7,0.3
			h3.5c0.4,0,0.8-0.4,0.8-0.8v-3.5c0-0.4-0.4-0.8-0.8-0.8H-272.7z"/>
	</g>
	<g>
		<path d="M-274.9,399h-1.6c-0.7,0-1.2-0.5-1.2-1.2v-1.6c0-0.7,0.5-1.2,1.2-1.2h1.6c0.7,0,1.2,0.5,1.2,1.2v1.6
			C-273.7,398.5-274.2,399-274.9,399z M-276.5,396c-0.1,0-0.2,0.1-0.2,0.2v1.6c0,0.1,0.1,0.2,0.2,0.2h1.6c0.1,0,0.2-0.1,0.2-0.2
			v-1.6c0-0.1-0.1-0.2-0.2-0.2H-276.5z"/>
	</g>
</g>
</svg>
